<?xml version="1.0" encoding="UTF-8"?>
<svg width="60px" height="60px" viewBox="0 0 60 60" version="1.1" xmlns="http://www.w3.org/2000/svg" xmlns:xlink="http://www.w3.org/1999/xlink">
    <title>编组</title>
    <g id="页面-1" stroke="none" stroke-width="1" fill="none" fill-rule="evenodd">
        <g id="Android" transform="translate(-150.000000, -201.000000)">
            <g id="编组" transform="translate(150.000000, 201.000000)">
                <path d="M30,0 C46.5685425,-3.04359188e-15 60,13.4314575 60,30 L60,30 L60,30 L30,30 L30,0 Z" id="矩形" fill="#FFDA53"></path>
                <path d="M0,30 L30,30 L30,60 C13.4314575,60 2.02906125e-15,46.5685425 0,30 L0,30 L0,30 Z" id="矩形备份-2" fill="#0099FC"></path>
                <path d="M15.9769304,6.02294346 C21.4944642,6.03563186 25.9641721,10.5052833 25.9769301,16.022817 L25.9769307,16.0230699 C25.9896129,21.5078226 21.5536233,25.964374 16.0688707,25.9770563 C16.0536037,25.9770916 16.0383366,25.9770917 16.0230696,25.9770565 C10.5055358,25.9643681 6.03582791,21.4947167 6.02306991,15.977183 L6.02306932,15.9769301 C6.01038711,10.4921774 10.4463767,6.03562595 15.9311293,6.02294374 C15.9463963,6.02290844 15.9616634,6.02290835 15.9769304,6.02294346 Z" id="矩形备份" fill="#FFB4C4"></path>
                <polygon id="矩形备份-3" fill="#1A49BA" points="30 30 60 60 30 60"></polygon>
            </g>
        </g>
    </g>
</svg>